<?xml version="1.0" encoding="utf-8"?>
<!-- Generator: Adobe Illustrator 22.0.0, SVG Export Plug-In . SVG Version: 6.00 Build 0)  -->
<svg version="1.1" id="Слой_1" xmlns="http://www.w3.org/2000/svg" xmlns:xlink="http://www.w3.org/1999/xlink" x="0px" y="0px"
	 viewBox="0 0 200 200" style="enable-background:new 0 0 200 200;" xml:space="preserve">
<style type="text/css">
	.st0{fill:#11B2F5;}
</style>
<path class="st0" d="M79.7,102.7c6.3,6.4,11.6,11.8,17.9,18.1c8.6,8.7,17.3,17.3,25.9,25.9c2.9,2.9,5.6,3.2,7.9,0.9
	c2.1-2.1,1.8-5.1-1-7.9c-13.2-13.2-26.3-26.3-39.7-39.7c0.9-1,1.8-1.9,2.6-2.8c12.1-12.1,24.2-24.2,36.3-36.3
	c0.6-0.6,1.2-1.1,1.7-1.7c1.8-2.2,1.9-5.1,0-6.9c-2.2-2.1-4.7-2.1-6.9,0c-2.8,2.6-5.5,5.4-8.2,8.1C105.6,71.2,94.8,82,84,92.8
	c-1.8,1.8-2.8,3-4.6,4.8C78,99.2,78.4,101.3,79.7,102.7z"/>
</svg>
