<?xml version="1.0" encoding="utf-8"?>
<!-- Generator: Adobe Illustrator 22.0.0, SVG Export Plug-In . SVG Version: 6.00 Build 0)  -->
<svg version="1.1" id="Слой_1" xmlns="http://www.w3.org/2000/svg" xmlns:xlink="http://www.w3.org/1999/xlink" x="0px" y="0px"
	 viewBox="0 0 200 200" style="enable-background:new 0 0 200 200;" xml:space="preserve">
<style type="text/css">
	.st0{fill:#11B2F5;}
</style>
<path class="st0" d="M131.7,102.7c-6.3,6.4-11.6,11.8-17.9,18.1c-8.6,8.7-17.3,17.3-25.9,25.9c-2.9,2.9-5.6,3.2-7.9,0.9
	c-2.1-2.1-1.8-5.1,1-7.9c13.2-13.2,26.3-26.3,39.7-39.7c-0.9-1-1.8-1.9-2.6-2.8C105.9,85.2,93.8,73.1,81.7,61
	c-0.6-0.6-1.2-1.1-1.7-1.7c-1.8-2.2-1.9-5.1,0-6.9c2.2-2.1,4.7-2.1,6.9,0c2.8,2.6,5.5,5.4,8.2,8.1c10.8,10.8,21.6,21.6,32.3,32.3
	c1.8,1.8,2.8,3,4.6,4.8C133.4,99.2,133,101.3,131.7,102.7z"/>
</svg>
